# Blender v2.61 (sub 0) OBJ File: 'TrueBlood.blend'
# www.blender.org
mtllib TrueBloodv2.mtl
o Circle
v 0.016749 0.000000 -0.029505
v 0.030893 0.000000 -0.014025
v 0.033237 0.000000 0.006812
v 0.022885 0.000000 0.025047
v 0.003792 0.000000 0.033715
v -0.016749 0.000000 0.029505
v -0.030893 0.000000 0.014025
v -0.033237 0.000000 -0.006812
v -0.022885 0.000000 -0.025047
v -0.003792 0.000000 -0.033715
v 0.020820 0.004968 -0.036675
v -0.004713 0.004968 -0.041908
v -0.028446 0.004968 -0.031134
v -0.041314 0.004968 -0.008468
v -0.038401 0.004968 0.017433
v -0.020820 0.004968 0.036675
v 0.004713 0.004968 0.041908
v 0.028446 0.004968 0.031134
v 0.041314 0.004968 0.008468
v 0.038401 0.004968 -0.017433
v 0.036061 0.135607 -0.016371
v 0.019551 0.135607 -0.034440
v 0.038796 0.135607 0.007952
v 0.026713 0.135607 0.029237
v 0.004426 0.135607 0.039355
v -0.019551 0.135607 0.034440
v -0.036061 0.135607 0.016371
v -0.038796 0.135607 -0.007952
v -0.026713 0.135607 -0.029237
v -0.004426 0.135607 -0.039355
v 0.011385 0.148989 -0.020054
v -0.002577 0.148989 -0.022916
v -0.015555 0.148989 -0.017025
v -0.022591 0.148989 -0.004630
v -0.020998 0.148989 0.009533
v -0.011385 0.148989 0.020054
v 0.002577 0.148989 0.022916
v 0.015555 0.148989 0.017025
v 0.022591 0.148989 0.004630
v 0.020998 0.148989 -0.009533
v 0.010277 0.192730 -0.018104
v 0.018956 0.192730 -0.008605
v 0.020394 0.192730 0.004180
v 0.014042 0.192730 0.015369
v 0.002327 0.192730 0.020687
v -0.010277 0.192730 0.018104
v -0.018956 0.192730 0.008605
v -0.020394 0.192730 -0.004180
v -0.014042 0.192730 -0.015369
v -0.002327 0.192730 -0.020687
v -0.001997 0.205974 -0.017755
v 0.008820 0.205974 -0.015538
v -0.012051 0.205974 -0.013190
v -0.017503 0.205974 -0.003587
v -0.016269 0.205974 0.007386
v -0.008820 0.205974 0.015538
v 0.001997 0.205974 0.017755
v 0.012051 0.205974 0.013190
v 0.017503 0.205974 0.003587
v 0.016269 0.205974 -0.007386
v 0.000000 0.009367 -0.000000
v 0.020803 0.130087 -0.036644
v 0.038369 0.130087 -0.017419
v 0.041279 0.130087 0.008461
v 0.028423 0.130087 0.031108
v 0.004709 0.130087 0.041873
v -0.020803 0.130087 0.036644
v -0.038369 0.130087 0.017419
v -0.041279 0.130087 -0.008461
v -0.028423 0.130087 -0.031108
v -0.004709 0.130087 -0.041873
v -0.038369 0.130087 0.017419
v -0.018956 0.192730 0.008605
v -0.020998 0.148989 0.009533
v -0.036061 0.135607 0.016371
v -0.038401 0.004968 0.017433
v -0.030893 0.000000 0.014025
v 0.000000 0.005565 -0.000000
v -0.003792 0.000000 -0.033715
v -0.022885 0.000000 -0.025047
v -0.033237 0.000000 -0.006812
v -0.030893 0.000000 0.014025
v -0.016749 0.000000 0.029505
v 0.003792 0.000000 0.033715
v 0.022885 0.000000 0.025047
v 0.033237 0.000000 0.006812
v 0.030893 0.000000 -0.014025
v 0.016749 0.000000 -0.029505
v -0.018956 0.192730 0.008605
v -0.020367 0.193643 0.009246
v 0.020367 0.193643 -0.009246
v 0.021912 0.193643 0.004491
v 0.015087 0.193643 0.016513
v 0.002500 0.193643 0.022227
v -0.011042 0.193643 0.019452
v -0.020367 0.193643 0.009246
v -0.021912 0.193643 -0.004491
v -0.015087 0.193643 -0.016513
v -0.002500 0.193643 -0.022227
v 0.011042 0.193643 -0.019452
v -0.002327 0.192730 -0.020687
v -0.014042 0.192730 -0.015369
v -0.020394 0.192730 -0.004180
v -0.018956 0.192730 0.008605
v -0.010277 0.192730 0.018104
v 0.002327 0.192730 0.020687
v 0.014042 0.192730 0.015369
v 0.020394 0.192730 0.004180
v 0.018956 0.192730 -0.008605
v 0.010277 0.192730 -0.018104
v -0.020367 0.193643 0.009246
v -0.020367 0.205974 0.009246
v -0.002500 0.205974 -0.022227
v -0.015087 0.205974 -0.016513
v -0.021912 0.205974 -0.004491
v -0.020367 0.205974 0.009246
v -0.011042 0.205974 0.019452
v 0.002500 0.205974 0.022227
v 0.015087 0.205974 0.016513
v 0.021912 0.205974 0.004491
v 0.020367 0.205974 -0.009246
v 0.011042 0.205974 -0.019452
v 0.020367 0.193643 -0.009246
v 0.021912 0.193643 0.004491
v 0.015087 0.193643 0.016513
v 0.002500 0.193643 0.022227
v -0.011042 0.193643 0.019452
v -0.020367 0.193643 0.009246
v -0.021912 0.193643 -0.004491
v -0.015087 0.193643 -0.016513
v -0.002500 0.193643 -0.022227
v 0.011042 0.193643 -0.019452
v -0.020367 0.205974 0.009246
v -0.016269 0.205974 0.007386
v 0.016269 0.205974 -0.007386
v 0.017503 0.205974 0.003587
v 0.012051 0.205974 0.013190
v 0.001997 0.205974 0.017755
v -0.008820 0.205974 0.015538
v -0.016269 0.205974 0.007386
v -0.017503 0.205974 -0.003587
v -0.012051 0.205974 -0.013190
v 0.008820 0.205974 -0.015538
v -0.001997 0.205974 -0.017755
v -0.002500 0.205974 -0.022227
v -0.015087 0.205974 -0.016513
v -0.021912 0.205974 -0.004491
v -0.020367 0.205974 0.009246
v -0.011042 0.205974 0.019452
v 0.002500 0.205974 0.022227
v 0.015087 0.205974 0.016513
v 0.021912 0.205974 0.004491
v 0.020367 0.205974 -0.009246
v 0.011042 0.205974 -0.019452
vt 0.486884 0.010689
vt 0.667688 0.010689
vt 0.667045 0.024475
vt 0.487116 0.024475
vt 0.837074 0.010689
vt 0.839410 0.024475
vt 0.860035 0.010689
vt 0.860035 0.024475
vt 0.885056 0.013048
vt 0.885056 0.026834
vt 0.073372 0.010689
vt 0.073372 0.024475
vt 0.051015 0.024475
vt 0.051015 0.010689
vt 0.104781 0.010689
vt 0.104781 0.024475
vt 0.129173 0.010689
vt 0.129173 0.024475
vt 0.140007 0.010689
vt 0.140186 0.024475
vt 0.306964 0.010689
vt 0.308389 0.024475
vt 0.480199 0.921702
vt 0.647694 0.921702
vt 0.629673 0.933655
vt 0.477319 0.933655
vt 0.816848 0.921702
vt 0.784181 0.933655
vt 0.860035 0.921702
vt 0.860035 0.933655
vt 0.885056 0.924061
vt 0.885056 0.933655
vt 0.051015 0.921702
vt 0.073372 0.921702
vt 0.073372 0.933655
vt 0.051015 0.933655
vt 0.104781 0.921702
vt 0.104781 0.933655
vt 0.129173 0.921702
vt 0.129173 0.933655
vt 0.153978 0.921702
vt 0.170128 0.933655
vt 0.316242 0.921702
vt 0.323969 0.933655
vt 0.467417 0.947382
vt 0.332694 0.947382
vt 0.198156 0.947382
vt 0.129173 0.947382
vt 0.104781 0.947382
vt 0.073372 0.947382
vt 0.051015 0.947382
vt 0.885056 0.947382
vt 0.860035 0.947382
vt 0.733381 0.947382
vt 0.601438 0.947382
vt 0.057349 0.394631
vt 0.069771 0.411729
vt 0.037249 0.422296
vt 0.037249 0.388100
vt 0.017150 0.394631
vt 0.004728 0.411729
vt 0.004728 0.432862
vt 0.017150 0.449960
vt 0.037249 0.456491
vt 0.057349 0.449960
vt 0.069771 0.432862
vt 0.482604 0.911065
vt 0.317053 0.911065
vt 0.153305 0.911065
vt 0.129173 0.911065
vt 0.104781 0.911065
vt 0.073372 0.911065
vt 0.051015 0.911065
vt 0.885056 0.913425
vt 0.860035 0.911065
vt 0.823766 0.911065
vt 0.651810 0.911065
vt 0.025809 0.482737
vt 0.043227 0.488397
vt 0.036573 0.497554
vt 0.025809 0.501052
vt 0.015043 0.497554
vt 0.008390 0.488397
vt 0.008390 0.477078
vt 0.015043 0.467920
vt 0.025809 0.464422
vt 0.036574 0.467920
vt 0.043227 0.477078
vt 0.041444 0.589729
vt 0.041443 0.582142
vt 0.042480 0.581857
vt 0.042480 0.590013
vt 0.037562 0.596245
vt 0.038308 0.597016
vt 0.030923 0.599883
vt 0.031171 0.600926
vt 0.023360 0.599623
vt 0.023041 0.600646
vt 0.016992 0.595542
vt 0.016196 0.596259
vt 0.013600 0.588785
vt 0.012550 0.588996
vt 0.023315 0.572202
vt 0.016908 0.576307
vt 0.016107 0.575586
vt 0.022995 0.571173
vt 0.030917 0.571940
vt 0.031167 0.570892
vt 0.037585 0.575593
vt 0.038334 0.574819
vt 0.905824 0.485355
vt 0.905824 0.406379
vt 0.976266 0.406379
vt 0.976267 0.485355
vt 0.905824 0.327403
vt 0.976266 0.327403
vt 0.905824 0.248428
vt 0.976265 0.248427
vt 0.905823 0.169452
vt 0.976265 0.169452
vt 0.905825 0.959210
vt 0.905824 0.880234
vt 0.976267 0.880234
vt 0.976267 0.959210
vt 0.905824 0.801258
vt 0.976267 0.801258
vt 0.905825 0.722282
vt 0.976267 0.722282
vt 0.905825 0.643306
vt 0.976267 0.643306
vt 0.905825 0.564331
vt 0.976267 0.564330
vt 0.039739 0.534314
vt 0.039739 0.542520
vt 0.037198 0.541694
vt 0.037198 0.535140
vt 0.034916 0.527675
vt 0.033345 0.529837
vt 0.027111 0.525139
vt 0.027111 0.527811
vt 0.019306 0.527675
vt 0.020877 0.529836
vt 0.014482 0.534314
vt 0.017023 0.535140
vt 0.014482 0.542520
vt 0.017023 0.541695
vt 0.019308 0.549158
vt 0.014485 0.542520
vt 0.017026 0.541694
vt 0.020878 0.546997
vt 0.027112 0.551694
vt 0.027112 0.549022
vt 0.034916 0.549158
vt 0.033346 0.546997
vn 0.254769 -0.856533 -0.448775
vn -0.057649 -0.856533 -0.512833
vn -0.099551 -0.454360 -0.885220
vn 0.439772 -0.454360 -0.774682
vn -0.348094 -0.856533 -0.380993
vn -0.600848 -0.454360 -0.657643
vn -0.505539 -0.856533 -0.103610
vn -0.872646 -0.454360 -0.178838
vn -0.531785 -0.844722 0.059786
vn -0.894070 -0.436445 0.100528
vn -0.254769 -0.856533 0.448775
vn -0.439772 -0.454360 0.774682
vn -0.664205 -0.436445 0.606861
vn -0.395062 -0.844722 0.360973
vn 0.057649 -0.856533 0.512833
vn 0.099551 -0.454360 0.885220
vn 0.348094 -0.856533 0.380993
vn 0.600848 -0.454360 0.657643
vn 0.505539 -0.856533 0.103610
vn 0.872646 -0.454360 0.178838
vn 0.469893 -0.856533 -0.213324
vn 0.811121 -0.454360 -0.368236
vn 0.397656 0.592547 -0.700491
vn -0.089999 0.592547 -0.800439
vn -0.097446 0.489639 -0.866451
vn 0.430433 0.489639 -0.758232
vn -0.543321 0.592547 -0.594653
vn -0.588122 0.489639 -0.643696
vn -0.789087 0.592547 -0.161718
vn -0.854152 0.489639 -0.175054
vn -0.814234 0.573260 0.091556
vn -0.876522 0.471084 0.098575
vn -0.604877 0.573260 0.552660
vn -0.397656 0.592547 0.700491
vn -0.430433 0.489639 0.758232
vn -0.651173 0.471084 0.594958
vn 0.089999 0.592547 0.800439
vn 0.097446 0.489639 0.866451
vn 0.543321 0.592547 0.594653
vn 0.588122 0.489639 0.643696
vn 0.789087 0.592547 0.161718
vn 0.854152 0.489639 0.175054
vn 0.733451 0.592547 -0.332957
vn 0.793908 0.489639 -0.360424
vn 0.493027 0.051210 -0.868496
vn 0.909360 0.051210 -0.412824
vn 0.978332 0.051210 0.200507
vn 0.673635 0.051210 0.737266
vn 0.111606 0.051210 0.992401
vn -0.493027 0.051210 0.868496
vn -0.737358 0.048708 0.673696
vn -0.992553 0.048708 0.111606
vn -0.978332 0.051210 -0.200507
vn -0.673635 0.051210 -0.737266
vn -0.111606 0.051210 -0.992401
vn -0.906796 0.090487 0.411664
vn -0.491653 0.090487 0.866054
vn 0.000000 1.000000 0.000000
vn -0.975585 0.090487 -0.199957
vn -0.671743 0.090487 -0.735221
vn -0.111301 0.090487 -0.989654
vn 0.491653 0.090487 -0.866054
vn 0.906796 0.090487 -0.411664
vn 0.975585 0.090487 0.199957
vn 0.671743 0.090487 0.735221
vn 0.111301 0.090487 0.989654
vn 0.483139 0.205420 -0.851070
vn 0.891110 0.205420 -0.404553
vn 0.958708 0.205420 0.196478
vn 0.660115 0.205420 0.722495
vn 0.109378 0.205420 0.972533
vn -0.483139 0.205420 0.851070
vn -0.723960 0.195776 0.661458
vn -0.974487 0.195776 0.109592
vn -0.958708 0.205420 -0.196478
vn -0.660115 0.205420 -0.722495
vn -0.109378 0.205420 -0.972533
vn 0.000000 -0.999969 0.000000
vn -0.079897 -0.986785 0.140751
vn -0.147374 -0.986785 0.066897
vn -0.158544 -0.986785 -0.032472
vn -0.109165 -0.986785 -0.119480
vn -0.018067 -0.986785 -0.160833
vn 0.079897 -0.986785 -0.140751
vn 0.147374 -0.986785 -0.066897
vn 0.158544 -0.986785 0.032472
vn 0.109165 -0.986785 0.119480
vn 0.018067 -0.986785 0.160833
vn 0.462264 -0.861507 -0.209845
vn 0.250618 -0.861507 -0.441511
vn 0.497360 -0.861507 0.101932
vn 0.342448 -0.861507 0.374798
vn 0.056734 -0.861507 0.504501
vn -0.250618 -0.861507 0.441511
vn -0.388836 -0.850032 0.355266
vn -0.497360 -0.861507 -0.101932
vn -0.523392 -0.850032 0.058840
vn -0.342448 -0.861507 -0.374798
vn -0.056734 -0.861507 -0.504501
vn 0.493667 0.000000 -0.869625
vn -0.111759 0.000000 -0.993713
vn -0.674520 0.000000 -0.738243
vn -0.979614 0.000000 -0.200781
vn -0.993713 0.000000 0.111759
vn -0.738243 0.000000 0.674520
vn -0.493667 0.000000 0.869625
vn 0.111759 0.000000 0.993713
vn 0.674520 0.000000 0.738243
vn 0.979614 0.000000 0.200781
vn 0.910550 0.000000 -0.413373
vn 0.000000 0.999969 0.000000
usemtl Material_TB2.png
s 1
f 1/1/1 10/2/2 12/3/3
f 1/1/1 12/3/3 11/4/4
f 9/5/5 13/6/6 12/3/3
f 9/5/5 12/3/3 10/2/2
f 9/5/5 8/7/7 14/8/8
f 9/5/5 14/8/8 13/6/6
f 8/7/7 77/9/9 76/10/10
f 8/7/7 76/10/10 14/8/8
f 6/11/11 16/12/12 15/13/13
f 6/11/11 15/13/13 7/14/14
f 5/15/15 17/16/16 16/12/12
f 5/15/15 16/12/12 6/11/11
f 4/17/17 18/18/18 17/16/16
f 4/17/17 17/16/16 5/15/15
f 4/17/17 3/19/19 19/20/20
f 4/17/17 19/20/20 18/18/18
f 3/19/19 2/21/21 20/22/22
f 3/19/19 20/22/22 19/20/20
f 1/1/1 11/4/4 20/22/22
f 1/1/1 20/22/22 2/21/21
f 22/23/23 30/24/24 32/25/25
f 22/23/23 32/25/25 31/26/26
f 30/24/24 29/27/27 33/28/28
f 30/24/24 33/28/28 32/25/25
f 29/27/27 28/29/29 34/30/30
f 29/27/27 34/30/30 33/28/28
f 28/29/29 75/31/31 74/32/32
f 28/29/29 74/32/32 34/30/30
f 27/33/33 26/34/34 36/35/35
f 27/33/33 36/35/35 35/36/36
f 26/34/34 25/37/37 37/38/38
f 26/34/34 37/38/38 36/35/35
f 25/37/37 24/39/39 38/40/40
f 25/37/37 38/40/40 37/38/38
f 24/39/39 23/41/41 39/42/42
f 24/39/39 39/42/42 38/40/40
f 23/41/41 21/43/43 40/44/44
f 23/41/41 40/44/44 39/42/42
f 21/43/43 22/23/23 31/26/26
f 21/43/43 31/26/26 40/44/44
f 40/44/44 31/26/26 41/45/45
f 40/44/44 41/45/45 42/46/46
f 39/42/42 40/44/44 42/46/46
f 39/42/42 42/46/46 43/47/47
f 38/40/40 39/42/42 43/47/47
f 38/40/40 43/47/47 44/48/48
f 37/38/38 38/40/40 44/48/48
f 37/38/38 44/48/48 45/49/49
f 36/35/35 37/38/38 45/49/49
f 36/35/35 45/49/49 46/50/50
f 35/36/36 36/35/35 46/50/50
f 35/36/36 46/50/50 47/51/51
f 34/30/30 74/32/32 73/52/52
f 34/30/30 73/52/52 48/53/53
f 33/28/28 34/30/30 48/53/53
f 33/28/28 48/53/53 49/54/54
f 32/25/25 33/28/28 49/54/54
f 32/25/25 49/54/54 50/55/55
f 31/26/26 32/25/25 50/55/55
f 31/26/26 50/55/55 41/45/45
f 60/56/56 52/57/57 61/58/58
f 59/59/59 60/56/56 61/58/58
f 58/60/60 59/59/59 61/58/58
f 57/61/61 58/60/60 61/58/58
f 56/62/62 57/61/61 61/58/58
f 55/63/63 56/62/62 61/58/58
f 54/64/64 55/63/63 61/58/58
f 53/65/65 54/64/64 61/58/58
f 51/66/66 53/65/65 61/58/58
f 52/57/57 51/66/66 61/58/58
f 11/4/4 62/67/67 63/68/68
f 11/4/4 63/68/68 20/22/22
f 62/67/67 22/23/23 21/43/43
f 62/67/67 21/43/43 63/68/68
f 20/22/22 63/68/68 64/69/69
f 20/22/22 64/69/69 19/20/20
f 63/68/68 21/43/43 23/41/41
f 63/68/68 23/41/41 64/69/69
f 19/20/20 64/69/69 65/70/70
f 19/20/20 65/70/70 18/18/18
f 64/69/69 23/41/41 24/39/39
f 64/69/69 24/39/39 65/70/70
f 18/18/18 65/70/70 66/71/71
f 18/18/18 66/71/71 17/16/16
f 65/70/70 24/39/39 25/37/37
f 65/70/70 25/37/37 66/71/71
f 17/16/16 66/71/71 67/72/72
f 17/16/16 67/72/72 16/12/12
f 66/71/71 25/37/37 26/34/34
f 66/71/71 26/34/34 67/72/72
f 16/12/12 67/72/72 68/73/73
f 16/12/12 68/73/73 15/13/13
f 67/72/72 26/34/34 27/33/33
f 67/72/72 27/33/33 68/73/73
f 76/10/10 72/74/74 69/75/75
f 76/10/10 69/75/75 14/8/8
f 72/74/74 75/31/31 28/29/29
f 72/74/74 28/29/29 69/75/75
f 14/8/8 69/75/75 70/76/76
f 14/8/8 70/76/76 13/6/6
f 69/75/75 28/29/29 29/27/27
f 69/75/75 29/27/27 70/76/76
f 13/6/6 70/76/76 71/77/77
f 13/6/6 71/77/77 12/3/3
f 70/76/76 29/27/27 30/24/24
f 70/76/76 30/24/24 71/77/77
f 12/3/3 71/77/77 62/67/67
f 12/3/3 62/67/67 11/4/4
f 71/77/77 30/24/24 22/23/23
f 71/77/77 22/23/23 62/67/67
f 78/78/78 88/79/79 87/80/80
f 87/80/80 86/81/81 78/78/78
f 86/81/81 85/82/82 78/78/78
f 84/83/83 78/78/78 85/82/82
f 83/84/84 78/78/78 84/83/83
f 82/85/85 78/78/78 83/84/84
f 82/85/85 81/86/86 78/78/78
f 81/86/86 80/87/87 78/78/78
f 79/88/88 78/78/78 80/87/87
f 79/88/88 88/79/79 78/78/78
f 109/89/89 110/90/90 100/91/90
f 109/89/89 100/91/90 91/92/89
f 108/93/91 109/89/89 91/92/89
f 108/93/91 91/92/89 92/94/91
f 107/95/92 108/93/91 92/94/91
f 107/95/92 92/94/91 93/96/92
f 106/97/93 107/95/92 93/96/92
f 106/97/93 93/96/92 94/98/93
f 105/99/94 106/97/93 94/98/93
f 105/99/94 94/98/93 95/100/94
f 104/101/95 105/99/94 95/100/94
f 104/101/95 95/100/94 96/102/95
f 103/103/96 89/104/97 90/105/97
f 103/103/96 90/105/97 97/106/96
f 102/107/98 103/103/96 97/106/96
f 102/107/98 97/106/96 98/108/98
f 101/109/99 102/107/98 98/108/98
f 101/109/99 98/108/98 99/110/99
f 110/90/90 101/109/99 99/110/99
f 110/90/90 99/110/99 100/91/90
f 132/111/100 131/112/101 113/113/101
f 132/111/100 113/113/101 122/114/100
f 131/112/101 130/115/102 114/116/102
f 131/112/101 114/116/102 113/113/101
f 130/115/102 129/117/103 115/118/103
f 130/115/102 115/118/103 114/116/102
f 129/117/103 111/119/104 112/120/104
f 129/117/103 112/120/104 115/118/103
f 128/121/105 127/122/106 117/123/106
f 128/121/105 117/123/106 116/124/105
f 127/122/106 126/125/107 118/126/107
f 127/122/106 118/126/107 117/123/106
f 126/125/107 125/127/108 119/128/108
f 126/125/107 119/128/108 118/126/107
f 125/127/108 124/129/109 120/130/109
f 125/127/108 120/130/109 119/128/108
f 124/129/109 123/131/110 121/132/110
f 124/129/109 121/132/110 120/130/109
f 123/131/110 132/111/100 122/114/100
f 123/131/110 122/114/100 121/132/110
f 153/133/58 154/134/58 143/135/58
f 153/133/58 143/135/58 135/136/58
f 152/137/58 153/133/58 135/136/58
f 152/137/58 135/136/58 136/138/58
f 151/139/58 152/137/58 136/138/58
f 151/139/58 136/138/58 137/140/111
f 150/141/111 151/139/58 137/140/111
f 150/141/111 137/140/111 138/142/111
f 149/143/58 150/141/111 138/142/111
f 149/143/58 138/142/111 139/144/111
f 148/145/58 149/143/58 139/144/111
f 148/145/58 139/144/111 140/146/58
f 147/147/58 133/148/58 134/149/111
f 147/147/58 134/149/111 141/150/111
f 146/151/58 147/147/58 141/150/111
f 146/151/58 141/150/111 142/152/58
f 145/153/58 146/151/58 142/152/58
f 145/153/58 142/152/58 144/154/58
f 154/134/58 145/153/58 144/154/58
f 154/134/58 144/154/58 143/135/58
